<svg width="81" height="127" viewBox="0 0 81 127" fill="none" xmlns="http://www.w3.org/2000/svg">
<foreignObject x="-0.363865" y="-5.21885" width="81.5173" height="131.809"><div xmlns="http://www.w3.org/1999/xhtml" style="backdrop-filter:blur(6.25px);clip-path:url(#bgblur_0_104_47492_clip_path);height:100%;width:100%"></div></foreignObject><g filter="url(#filter0_d_104_47492)" data-figma-bg-blur-radius="12.5001">
<path d="M12.1362 25.4853C12.1362 15.4315 20.2865 7.28125 30.3403 7.28125L50.4492 7.28125C60.503 7.28125 68.6532 15.4315 68.6532 25.4853V91.3953C68.6532 101.449 60.503 109.599 50.4492 109.599H30.3403C20.2865 109.599 12.1362 101.449 12.1362 91.3953V25.4853Z" fill="#686868" fill-opacity="0.6" shape-rendering="crispEdges"/>
<path d="M30.3403 7.58496L50.4487 7.58496C60.335 7.58496 68.3501 15.5991 68.3501 25.4854V91.3955C68.35 101.282 60.3349 109.296 50.4487 109.296H30.3403C20.4542 109.296 12.44 101.282 12.4399 91.3955V25.4854C12.4399 15.5991 20.4541 7.58496 30.3403 7.58496Z" stroke="url(#paint0_linear_104_47492)" stroke-width="0.606801" shape-rendering="crispEdges"/>
<path d="M34.2862 19.75V26.3737C34.2382 26.3897 34.174 26.4017 34.0939 26.4097C34.0138 26.4257 33.9296 26.4338 33.8415 26.4338C33.6491 26.4338 33.4968 26.4017 33.3846 26.3376C33.2725 26.2655 33.2164 26.1332 33.2164 25.9409V24.294C32.9198 23.8692 32.5632 23.5166 32.1465 23.2361C31.7378 22.9556 31.313 22.8154 30.8722 22.8154C30.4956 22.8154 30.2191 22.9036 30.0428 23.0799C29.8665 23.2562 29.7783 23.4645 29.7783 23.705C29.7783 23.9534 29.8625 24.1497 30.0308 24.294C30.2071 24.4382 30.4395 24.5104 30.728 24.5104C30.9043 24.5104 31.0525 24.4943 31.1728 24.4623C31.293 24.4222 31.4052 24.3741 31.5094 24.318C31.5735 24.3822 31.6216 24.4583 31.6536 24.5464C31.6937 24.6346 31.7137 24.7227 31.7137 24.8109C31.7137 24.9872 31.6216 25.1355 31.4372 25.2557C31.2609 25.3759 30.9804 25.436 30.5957 25.436C30.3313 25.436 30.0788 25.3999 29.8384 25.3278C29.606 25.2477 29.4016 25.1355 29.2253 24.9912C29.049 24.839 28.9088 24.6586 28.8046 24.4503C28.7004 24.2339 28.6483 23.9895 28.6483 23.717C28.6483 23.3804 28.7164 23.0999 28.8527 22.8755C28.9969 22.6431 29.1813 22.4548 29.4057 22.3105C29.2854 22.1663 29.1732 21.9819 29.0691 21.7575C28.9649 21.5331 28.9128 21.2567 28.9128 20.9281C28.9128 20.6957 28.9408 20.4793 28.9969 20.2789C29.053 20.0786 29.1252 19.9023 29.2133 19.75H27.9271C27.6626 19.75 27.5304 19.6017 27.5304 19.3052C27.5304 19.1449 27.5544 19.0047 27.6025 18.8845H35.5244C35.7889 18.8845 35.9211 19.0327 35.9211 19.3293C35.9211 19.4815 35.8971 19.6218 35.849 19.75H34.2862ZM30.9083 21.8657C31.1487 21.8657 31.3771 21.8978 31.5935 21.9619C31.8179 22.018 32.0303 22.0981 32.2306 22.2023C32.431 22.2985 32.6113 22.4107 32.7716 22.5389C32.9399 22.6671 33.0881 22.7994 33.2164 22.9356V19.75H30.3553C30.2672 19.8862 30.195 20.0505 30.1389 20.2429C30.0828 20.4352 30.0548 20.6436 30.0548 20.868C30.0548 21.2927 30.147 21.6453 30.3313 21.9258C30.5156 21.8858 30.7079 21.8657 30.9083 21.8657ZM44.5509 18.8845C44.8234 18.8845 44.9596 19.0327 44.9596 19.3293C44.9596 19.4815 44.9356 19.6218 44.8875 19.75H43.9859C44.026 19.8462 44.058 19.9504 44.0821 20.0626C44.1141 20.1748 44.1301 20.295 44.1301 20.4232C44.1301 20.7518 44.0219 21.0323 43.8056 21.2647C43.5892 21.4891 43.3047 21.6333 42.9521 21.6974C43.0162 21.7615 43.0723 21.8216 43.1204 21.8777C43.1684 21.9338 43.2085 21.994 43.2406 22.0581C43.1524 22.2424 43.0683 22.4387 42.9881 22.6471C42.908 22.8475 42.8359 23.0799 42.7717 23.3443C42.7076 23.6008 42.6555 23.8973 42.6155 24.2339C42.5754 24.5625 42.5554 24.9431 42.5554 25.3759C42.5554 25.6804 42.5714 25.9729 42.6035 26.2534C42.6355 26.5339 42.6836 26.7984 42.7477 27.0468C42.6996 27.1109 42.6395 27.163 42.5674 27.2031C42.4953 27.2512 42.3951 27.2752 42.2669 27.2752C42.1466 27.2752 42.0345 27.2512 41.9303 27.2031C41.8341 27.155 41.7459 27.0629 41.6658 26.9266C41.5937 26.7984 41.5336 26.6141 41.4855 26.3737C41.4454 26.1412 41.4254 25.8407 41.4254 25.4721C41.4254 25.1836 41.4414 24.9031 41.4735 24.6306C41.5135 24.3501 41.5616 24.0856 41.6177 23.8372C41.6818 23.5888 41.75 23.3644 41.8221 23.164C41.8942 22.9556 41.9663 22.7833 42.0385 22.6471C41.9022 22.7272 41.7339 22.8274 41.5336 22.9476C41.3412 23.0678 41.1409 23.1921 40.9325 23.3203C40.7322 23.4485 40.5358 23.5727 40.3435 23.6929C40.1592 23.8131 40.0069 23.9093 39.8867 23.9814C39.4459 24.2459 38.9931 24.4623 38.5283 24.6306C38.0635 24.7989 37.5826 24.883 37.0858 24.883C36.5007 24.883 36.2082 24.6827 36.2082 24.282C36.2082 24.1858 36.2202 24.0976 36.2443 24.0175C36.2763 23.9374 36.3124 23.8773 36.3525 23.8372C36.4647 23.8532 36.5728 23.8652 36.677 23.8733C36.7812 23.8813 36.9014 23.8853 37.0377 23.8853C37.2861 23.8853 37.5385 23.8532 37.795 23.7891C38.0514 23.725 38.2839 23.6168 38.4922 23.4645C38.7006 23.3123 38.8689 23.1159 38.9971 22.8755C39.1253 22.6271 39.1894 22.3225 39.1894 21.9619C39.1894 21.5371 39.0893 21.2046 38.8889 20.9641C38.6966 20.7157 38.4522 20.5915 38.1556 20.5915C38.0194 20.5915 37.8872 20.6155 37.7589 20.6636C37.6307 20.7117 37.5145 20.7838 37.4103 20.88C37.3142 20.9762 37.234 21.1004 37.1699 21.2526C37.1138 21.3969 37.0858 21.5692 37.0858 21.7696C37.0858 21.8737 37.0978 21.9819 37.1218 22.0941C37.1459 22.1983 37.1779 22.2865 37.218 22.3586C37.1699 22.4227 37.1018 22.4828 37.0136 22.5389C36.9255 22.587 36.8133 22.611 36.677 22.611C36.4767 22.611 36.3044 22.5309 36.1601 22.3706C36.0239 22.2023 35.9558 21.9539 35.9558 21.6253C35.9558 21.3528 36.0079 21.1044 36.112 20.88C36.2242 20.6476 36.3685 20.4512 36.5448 20.291C36.7211 20.1307 36.9255 20.0024 37.1579 19.9063C37.3903 19.8101 37.6347 19.758 37.8912 19.75H35.499C35.2345 19.75 35.1023 19.6017 35.1023 19.3052C35.1023 19.1449 35.1263 19.0047 35.1744 18.8845L44.5509 18.8845ZM39.9227 22.8515C40.2513 22.6431 40.5799 22.4347 40.9085 22.2264C41.2451 22.01 41.5776 21.8176 41.9062 21.6493C41.5456 21.5371 41.229 21.3248 40.9566 21.0122C40.6921 20.6997 40.4877 20.2789 40.3435 19.75H38.5163C39.0452 19.8221 39.4659 20.0465 39.7785 20.4232C40.099 20.7918 40.2593 21.2486 40.2593 21.7936C40.2593 21.9859 40.2313 22.1743 40.1752 22.3586C40.1191 22.5349 40.0349 22.6992 39.9227 22.8515ZM43.1684 20.291C43.1684 20.0826 43.1043 19.9023 42.9761 19.75H41.3533C41.4655 20.1507 41.6217 20.4432 41.8221 20.6275C42.0304 20.8119 42.2629 20.904 42.5193 20.904C42.7197 20.904 42.8759 20.8479 42.9881 20.7357C43.1083 20.6235 43.1684 20.4753 43.1684 20.291ZM51.6006 19.75V26.3737C51.5525 26.3897 51.4884 26.4017 51.4083 26.4097C51.3362 26.4257 51.252 26.4338 51.1558 26.4338C50.9715 26.4338 50.8192 26.4017 50.699 26.3376C50.5868 26.2655 50.5307 26.1332 50.5307 25.9409V21.8297C50.4827 21.8136 50.4266 21.8016 50.3624 21.7936C50.3063 21.7856 50.2342 21.7816 50.1461 21.7816C49.8896 21.7816 49.6692 21.8777 49.4849 22.0701C49.3086 22.2624 49.1964 22.5349 49.1483 22.8875L49.0882 23.3804C48.976 23.4525 48.8157 23.4886 48.6074 23.4886C48.5352 23.4886 48.4551 23.4806 48.3669 23.4645C48.2868 23.4485 48.2187 23.4205 48.1626 23.3804L48.0664 22.8515C48.0103 22.5149 47.8781 22.2544 47.6697 22.0701C47.4613 21.8777 47.2089 21.7816 46.9124 21.7816C46.6078 21.7816 46.3514 21.8818 46.143 22.0821C45.9347 22.2825 45.8305 22.563 45.8305 22.9236C45.8305 23.1159 45.8625 23.2842 45.9266 23.4285C45.9908 23.5727 46.0749 23.6929 46.1791 23.7891C46.2913 23.8853 46.4115 23.9574 46.5397 24.0055C46.676 24.0456 46.8162 24.0656 46.9605 24.0656C47.0246 24.0656 47.0847 24.0616 47.1408 24.0536C47.1969 24.0456 47.2369 24.0375 47.261 24.0295C47.285 24.0776 47.3051 24.1377 47.3211 24.2098C47.3451 24.274 47.3572 24.3381 47.3572 24.4022C47.3572 24.7788 47.1087 24.9672 46.6118 24.9672C46.3955 24.9672 46.1751 24.9271 45.9507 24.847C45.7263 24.7668 45.5219 24.6426 45.3376 24.4743C45.1533 24.306 45.001 24.0936 44.8808 23.8372C44.7686 23.5807 44.7125 23.2762 44.7125 22.9236C44.7125 22.579 44.7686 22.2744 44.8808 22.01C45.001 21.7455 45.1573 21.5251 45.3496 21.3488C45.542 21.1725 45.7624 21.0403 46.0108 20.9521C46.2592 20.864 46.5117 20.8199 46.7681 20.8199C47.2169 20.8199 47.5976 20.9241 47.9101 21.1324C48.2227 21.3408 48.4431 21.6133 48.5713 21.9499C48.6835 21.5892 48.8758 21.3128 49.1483 21.1204C49.4288 20.9201 49.7534 20.8199 50.122 20.8199C50.2022 20.8199 50.2743 20.8239 50.3384 20.8319C50.4105 20.8399 50.4746 20.8519 50.5307 20.868V19.75H44.2918C44.0273 19.75 43.8951 19.6017 43.8951 19.3052C43.8951 19.1449 43.9191 19.0047 43.9672 18.8845H52.8268C53.0993 18.8845 53.2355 19.0327 53.2355 19.3293C53.2355 19.4575 53.2074 19.5977 53.1513 19.75H51.6006Z" fill="white"/>
<rect x="19.418" y="37.501" width="41.9538" height="64.3989" rx="13.7384" fill="#F2F7FA"/>
<path d="M33.1313 55.0604C33.1313 54.5955 33.2114 54.1828 33.3717 53.8222C33.54 53.4535 33.7604 53.145 34.0329 52.8965C34.3134 52.6481 34.638 52.4598 35.0066 52.3316C35.3833 52.2033 35.776 52.1392 36.1847 52.1392C36.5934 52.1392 36.9821 52.2073 37.3507 52.3436C37.7274 52.4718 38.052 52.6641 38.3244 52.9206C38.6049 53.169 38.8253 53.4736 38.9856 53.8342C39.1539 54.1948 39.238 54.6036 39.238 55.0604C39.238 55.5332 39.1539 55.9539 38.9856 56.3226C38.8253 56.6832 38.6049 56.9877 38.3244 57.2362C38.0439 57.4766 37.7154 57.6609 37.3387 57.7892C36.9701 57.9174 36.5774 57.9815 36.1606 57.9815C35.7519 57.9815 35.3632 57.9214 34.9946 57.8012C34.6259 57.6729 34.3014 57.4846 34.0209 57.2362C33.7484 56.9877 33.532 56.6832 33.3717 56.3226C33.2114 55.9539 33.1313 55.5332 33.1313 55.0604ZM34.7542 55.0604C34.7542 55.3168 34.7902 55.5452 34.8623 55.7456C34.9425 55.9379 35.0467 56.1022 35.1749 56.2384C35.3031 56.3667 35.4554 56.4668 35.6317 56.539C35.808 56.6031 35.9963 56.6351 36.1967 56.6351C36.5974 56.6351 36.934 56.5069 37.2065 56.2504C37.4789 55.986 37.6152 55.5893 37.6152 55.0604C37.6152 54.5555 37.4789 54.1708 37.2065 53.9063C36.934 53.6338 36.5934 53.4976 36.1847 53.4976C36.0003 53.4976 35.82 53.5297 35.6437 53.5938C35.4754 53.6579 35.3232 53.7541 35.1869 53.8823C35.0587 54.0105 34.9545 54.1748 34.8744 54.3751C34.7942 54.5675 34.7542 54.7959 34.7542 55.0604ZM46.4897 53.2572C46.6981 53.2572 46.8463 53.2131 46.9345 53.125C47.0226 53.0368 47.0667 52.9246 47.0667 52.7884C47.0667 52.7643 47.0667 52.7403 47.0667 52.7162C47.0667 52.6842 47.0627 52.6601 47.0547 52.6441C47.1108 52.58 47.1869 52.5279 47.2831 52.4878C47.3873 52.4397 47.5075 52.4157 47.6437 52.4157C47.8922 52.4157 48.0885 52.4958 48.2328 52.6561C48.385 52.8084 48.4612 53.0047 48.4612 53.2452C48.4612 53.6058 48.3329 53.9063 48.0765 54.1467C47.828 54.3792 47.4514 54.5274 46.9465 54.5915C46.7622 54.6076 46.6179 54.6316 46.5137 54.6637C46.4096 54.6877 46.3254 54.7358 46.2613 54.8079C46.2693 54.84 46.2733 54.872 46.2733 54.9041C46.2733 54.9361 46.2733 54.9722 46.2733 55.0123C46.2733 55.4691 46.1771 55.8898 45.9848 56.2745C45.8005 56.6512 45.548 56.9797 45.2275 57.2602C44.9149 57.5327 44.5503 57.7451 44.1336 57.8973C43.7248 58.0496 43.2921 58.1257 42.8353 58.1257C42.1461 58.1257 41.6211 57.9494 41.2605 57.5968C40.8999 57.2442 40.7195 56.7353 40.7195 56.0701V52.5479C40.7195 52.3155 40.6594 52.1512 40.5392 52.0551C40.427 51.9589 40.2988 51.9108 40.1546 51.9108C40.0023 51.9108 39.854 51.9228 39.7098 51.9469C39.6697 51.8908 39.6296 51.8146 39.5896 51.7185C39.5415 51.6223 39.5174 51.5021 39.5174 51.3578C39.5174 51.1014 39.6056 50.897 39.7819 50.7448C39.9662 50.5925 40.2547 50.5164 40.6474 50.5164C40.8718 50.5164 41.0842 50.5524 41.2845 50.6246C41.4849 50.6887 41.6612 50.7969 41.8135 50.9491C41.9657 51.1014 42.086 51.2977 42.1741 51.5382C42.2623 51.7786 42.3063 52.0671 42.3063 52.4037V53.2452H44.386C44.8268 53.2452 45.1834 53.3814 45.4559 53.6539C45.6242 53.4054 45.9688 53.2732 46.4897 53.2572ZM42.3063 54.5915V56.0701C42.3063 56.3186 42.3504 56.4949 42.4386 56.5991C42.5347 56.7032 42.699 56.7553 42.9314 56.7553C43.1077 56.7553 43.2961 56.7193 43.4964 56.6471C43.6968 56.567 43.8811 56.4588 44.0494 56.3226C44.2177 56.1783 44.3579 56.006 44.4701 55.8057C44.5823 55.6053 44.6384 55.3769 44.6384 55.1205C44.6384 54.7678 44.4301 54.5915 44.0133 54.5915H42.3063Z" fill="#434343"/>
<line x1="24.5098" y1="68.8968" x2="56.2799" y2="68.8968" stroke="#E4EEF5" stroke-width="0.858653"/>
<rect x="30.5205" y="74.4775" width="7.72787" height="7.72787" rx="1.71731" fill="#00D6CA"/>
<rect x="42.5415" y="74.4775" width="7.72787" height="7.72787" rx="1.71731" fill="#00D6CA"/>
</g>
<defs>
<filter id="filter0_d_104_47492" x="-0.363865" y="-5.21885" width="81.5173" height="131.809" filterUnits="userSpaceOnUse" color-interpolation-filters="sRGB">
<feFlood flood-opacity="0" result="BackgroundImageFix"/>
<feColorMatrix in="SourceAlpha" type="matrix" values="0 0 0 0 0 0 0 0 0 0 0 0 0 0 0 0 0 0 127 0" result="hardAlpha"/>
<feOffset dy="4.85441"/>
<feGaussianBlur stdDeviation="6.06801"/>
<feComposite in2="hardAlpha" operator="out"/>
<feColorMatrix type="matrix" values="0 0 0 0 0 0 0 0 0 0 0 0 0 0 0 0 0 0 0.25 0"/>
<feBlend mode="normal" in2="BackgroundImageFix" result="effect1_dropShadow_104_47492"/>
<feBlend mode="normal" in="SourceGraphic" in2="effect1_dropShadow_104_47492" result="shape"/>
</filter>
<clipPath id="bgblur_0_104_47492_clip_path" transform="translate(0.363865 5.21885)"><path d="M12.1362 25.4853C12.1362 15.4315 20.2865 7.28125 30.3403 7.28125L50.4492 7.28125C60.503 7.28125 68.6532 15.4315 68.6532 25.4853V91.3953C68.6532 101.449 60.503 109.599 50.4492 109.599H30.3403C20.2865 109.599 12.1362 101.449 12.1362 91.3953V25.4853Z"/>
</clipPath><linearGradient id="paint0_linear_104_47492" x1="12.1362" y1="14.5629" x2="69.2321" y2="109.117" gradientUnits="userSpaceOnUse">
<stop stop-color="white" stop-opacity="0.78"/>
<stop offset="1" stop-color="white" stop-opacity="0"/>
</linearGradient>
</defs>
</svg>
